Coordinates
version=1
nRows=24
nColumns=24
inDegrees=yes

Units are S.I. units (second, meters, Newtons, ...)
Angles are in degrees.

endheader
time	pelvis_tilt	pelvis_list	pelvis_rotation	pelvis_tx	pelvis_ty	pelvis_tz	hip_flexion_r	hip_adduction_r	hip_rotation_r	knee_angle_r	ankle_angle_r	subtalar_angle_r	mtp_angle_r	hip_flexion_l	hip_adduction_l	hip_rotation_l	knee_angle_l	ankle_angle_l	subtalar_angle_l	mtp_angle_l	lumbar_extension	lumbar_bending	lumbar_rotation
      4.35500000	     -7.23427746	      5.04862956	    359.49181106	      0.61705062	      1.36139854	     -1.00648636	      2.30000000	    -10.86000000	      9.81000000	     -4.39000000	      0.00000000	      0.00000000	      0.00000000	      0.71000000	      5.21000000	     -0.08000000	     -1.04000000	      0.00000000	      0.00000000	      0.00000000	     -8.81920151	      0.56752690	     -3.59039334
      4.36000000	     -7.18023131	      5.24990505	    359.54303020	      0.62235845	      1.36179538	     -1.00746593	      2.30000000	    -10.86000000	      9.81000000	     -4.39000000	      0.00000000	      0.00000000	      0.00000000	      0.71000000	      5.21000000	     -0.08000000	     -1.04000000	      0.00000000	      0.00000000	      0.00000000	     -8.84420336	      0.30219613	     -3.56158857
      4.36500000	     -7.12419971	      5.42049898	    359.59856340	      0.62762293	      1.36214503	     -1.00844089	      2.30000000	    -10.86000000	      9.81000000	     -4.39000000	      0.00000000	      0.00000000	      0.00000000	      0.71000000	      5.21000000	     -0.08000000	     -1.04000000	      0.00000000	      0.00000000	      0.00000000	     -8.87088757	      0.07106100	     -3.53328145
      4.37000000	     -7.06448255	      5.60755931	    359.66222611	      0.63285787	      1.36254219	     -1.00943345	      2.30000000	    -10.86000000	      9.81000000	     -4.39000000	      0.00000000	      0.00000000	      0.00000000	      0.71000000	      5.21000000	     -0.08000000	     -1.04000000	      0.00000000	      0.00000000	      0.00000000	     -8.89305298	     -0.17109181	     -3.51909267
      4.37500000	     -7.00598307	      5.76470788	    359.72815346	      0.63805993	      1.36291211	     -1.01042674	      2.30000000	    -10.86000000	      9.81000000	     -4.39000000	      0.00000000	      0.00000000	      0.00000000	      0.71000000	      5.21000000	     -0.08000000	     -1.04000000	      0.00000000	      0.00000000	      0.00000000	     -8.90701865	     -0.37555911	     -3.50793086
      4.38000000	     -6.96784210	      5.89986021	    359.79964958	      0.64320773	      1.36325665	     -1.01142775	      2.30000000	    -10.86000000	      9.81000000	     -4.39000000	      0.00000000	      0.00000000	      0.00000000	      0.71000000	      5.21000000	     -0.08000000	     -1.04000000	      0.00000000	      0.00000000	      0.00000000	     -8.89898988	     -0.54954927	     -3.50719528
      4.38500000	     -6.91469534	      6.02410208	    359.86764340	      0.64832893	      1.36359694	     -1.01241958	      2.30000000	    -10.86000000	      9.81000000	     -4.39000000	      0.00000000	      0.00000000	      0.00000000	      0.71000000	      5.21000000	     -0.08000000	     -1.04000000	      0.00000000	      0.00000000	      0.00000000	     -8.89776668	     -0.70608154	     -3.51408923
      4.39000000	     -6.85149620	      6.13886897	    359.93579184	      0.65339881	      1.36394984	     -1.01340678	      2.30000000	    -10.86000000	      9.81000000	     -4.39000000	      0.00000000	      0.00000000	      0.00000000	      0.71000000	      5.21000000	     -0.08000000	     -1.04000000	      0.00000000	      0.00000000	      0.00000000	     -8.91221262	     -0.84584907	     -3.53526140
      4.39500000	     -6.80723214	      6.23366790	    360.00105722	      0.65842754	      1.36427417	     -1.01438666	      2.30000000	    -10.86000000	      9.81000000	     -4.39000000	      0.00000000	      0.00000000	      0.00000000	      0.71000000	      5.21000000	     -0.08000000	     -1.04000000	      0.00000000	      0.00000000	      0.00000000	     -8.90025792	     -0.95718539	     -3.56205530
      4.40000000	     -6.76751455	      6.31473048	    360.06172198	      0.66342209	      1.36461394	     -1.01535069	      2.30000000	    -10.86000000	      9.81000000	     -4.39000000	      0.00000000	      0.00000000	      0.00000000	      0.71000000	      5.21000000	     -0.08000000	     -1.04000000	      0.00000000	      0.00000000	      0.00000000	     -8.88219164	     -1.04844915	     -3.59846073
      4.40500000	     -6.72174907	      6.37224174	    360.11409237	      0.66838652	      1.36492551	     -1.01629067	      2.30000000	    -10.86000000	      9.81000000	     -4.39000000	      0.00000000	      0.00000000	      0.00000000	      0.71000000	      5.21000000	     -0.08000000	     -1.04000000	      0.00000000	      0.00000000	      0.00000000	     -8.86385686	     -1.10986402	     -3.64010770
      4.41000000	     -6.68110347	      6.41717506	    360.16234726	      0.67331373	      1.36527953	     -1.01722180	      2.30000000	    -10.86000000	      9.81000000	     -4.39000000	      0.00000000	      0.00000000	      0.00000000	      0.71000000	      5.21000000	     -0.08000000	     -1.04000000	      0.00000000	      0.00000000	      0.00000000	     -8.84045149	     -1.15044170	     -3.69192902
      4.41500000	     -6.65177749	      6.45566869	    360.20185481	      0.67821236	      1.36561929	     -1.01812593	      2.30000000	    -10.86000000	      9.81000000	     -4.39000000	      0.00000000	      0.00000000	      0.00000000	      0.71000000	      5.21000000	     -0.08000000	     -1.04000000	      0.00000000	      0.00000000	      0.00000000	     -8.80125499	     -1.18169571	     -3.74848451
      4.42000000	     -6.61979374	      6.46852708	    360.23080865	      0.68308833	      1.36597255	     -1.01900151	      2.30000000	    -10.86000000	      9.81000000	     -4.39000000	      0.00000000	      0.00000000	      0.00000000	      0.71000000	      5.21000000	     -0.08000000	     -1.04000000	      0.00000000	      0.00000000	      0.00000000	     -8.76369210	     -1.18165170	     -3.80295382
      4.42500000	     -6.58685778	      6.48339097	    360.25281802	      0.68794061	      1.36636117	     -1.01985643	      2.30000000	    -10.86000000	      9.81000000	     -4.39000000	      0.00000000	      0.00000000	      0.00000000	      0.71000000	      5.21000000	     -0.08000000	     -1.04000000	      0.00000000	      0.00000000	      0.00000000	     -8.72515611	     -1.18143319	     -3.86485764
      4.43000000	     -6.54544316	      6.49625899	    360.26531909	      0.69277785	      1.36678563	     -1.02068312	      2.30000000	    -10.86000000	      9.81000000	     -4.39000000	      0.00000000	      0.00000000	      0.00000000	      0.71000000	      5.21000000	     -0.08000000	     -1.04000000	      0.00000000	      0.00000000	      0.00000000	     -8.69704485	     -1.17822968	     -3.92618202
      4.43500000	     -6.50765465	      6.49712711	    360.27004362	      0.69759048	      1.36724078	     -1.02148160	      2.30000000	    -10.86000000	      9.81000000	     -4.39000000	      0.00000000	      0.00000000	      0.00000000	      0.71000000	      5.21000000	     -0.08000000	     -1.04000000	      0.00000000	      0.00000000	      0.00000000	     -8.66623214	     -1.16225190	     -3.98449350
      4.44000000	     -6.45276187	      6.50706660	    360.26729187	      0.70240848	      1.36777052	     -1.02225346	      2.30000000	    -10.86000000	      9.81000000	     -4.39000000	      0.00000000	      0.00000000	      0.00000000	      0.71000000	      5.21000000	     -0.08000000	     -1.04000000	      0.00000000	      0.00000000	      0.00000000	     -8.65037208	     -1.15688322	     -4.04184846
      4.44500000	     -6.41081166	      6.48602848	    360.25841949	      0.70721253	      1.36827231	     -1.02299377	      2.30000000	    -10.86000000	      9.81000000	     -4.39000000	      0.00000000	      0.00000000	      0.00000000	      0.71000000	      5.21000000	     -0.08000000	     -1.04000000	      0.00000000	      0.00000000	      0.00000000	     -8.61861808	     -1.12012243	     -4.08829330
      4.45000000	     -6.34791628	      6.49783137	    360.24672401	      0.71200117	      1.36887361	     -1.02371732	      2.30000000	    -10.86000000	      9.81000000	     -4.39000000	      0.00000000	      0.00000000	      0.00000000	      0.71000000	      5.21000000	     -0.08000000	     -1.04000000	      0.00000000	      0.00000000	      0.00000000	     -8.61677621	     -1.12123460	     -4.13583534
      4.45500000	     -6.28398858	      6.48047758	    360.22856932	      0.71680129	      1.36947902	     -1.02440725	      2.30000000	    -10.86000000	      9.81000000	     -4.39000000	      0.00000000	      0.00000000	      0.00000000	      0.71000000	      5.21000000	     -0.08000000	     -1.04000000	      0.00000000	      0.00000000	      0.00000000	     -8.60732369	     -1.09408872	     -4.16740547
      4.46000000	     -6.22211138	      6.47506368	    360.21194938	      0.72158962	      1.37013200	     -1.02507877	      2.30000000	    -10.86000000	      9.81000000	     -4.39000000	      0.00000000	      0.00000000	      0.00000000	      0.71000000	      5.21000000	     -0.08000000	     -1.04000000	      0.00000000	      0.00000000	      0.00000000	     -8.60150524	     -1.08509213	     -4.19191279
      4.46500000	     -6.15277362	      6.46138303	    360.19234122	      0.72637474	      1.37080411	     -1.02572386	      2.30000000	    -10.86000000	      9.81000000	     -4.39000000	      0.00000000	      0.00000000	      0.00000000	      0.71000000	      5.21000000	     -0.08000000	     -1.04000000	      0.00000000	      0.00000000	      0.00000000	     -8.60465098	     -1.07205191	     -4.20106528
      4.47000000	     -6.06421060	      6.46300737	    360.17456063	      0.73115711	      1.37152730	     -1.02635391	      2.30000000	    -10.86000000	      9.81000000	     -4.39000000	      0.00000000	      0.00000000	      0.00000000	      0.71000000	      5.21000000	     -0.08000000	     -1.04000000	      0.00000000	      0.00000000	      0.00000000	     -8.63205533	     -1.08066418	     -4.20196537
